<?xml version="1.0" encoding="UTF-8" standalone="no"?>
<!-- Created with Inkscape (http://www.inkscape.org/) -->

<svg
   width="69.212807mm"
   height="66.507973mm"
   viewBox="0 0 69.212803 66.507974"
   version="1.1"
   id="svg1"
   inkscape:version="1.2.2 (732a01da63, 2022-12-09)"
   sodipodi:docname="StayChillB.svg"
   xmlns:inkscape="http://www.inkscape.org/namespaces/inkscape"
   xmlns:sodipodi="http://sodipodi.sourceforge.net/DTD/sodipodi-0.dtd"
   xmlns="http://www.w3.org/2000/svg"
   xmlns:svg="http://www.w3.org/2000/svg">
  <sodipodi:namedview
     id="namedview1"
     pagecolor="#ffffff"
     bordercolor="#000000"
     borderopacity="0.25"
     inkscape:showpageshadow="2"
     inkscape:pageopacity="0.0"
     inkscape:pagecheckerboard="0"
     inkscape:deskcolor="#d1d1d1"
     inkscape:document-units="mm"
     inkscape:zoom="2.9255613"
     inkscape:cx="62.039377"
     inkscape:cy="130.40233"
     inkscape:window-width="1920"
     inkscape:window-height="1013"
     inkscape:window-x="-9"
     inkscape:window-y="-9"
     inkscape:window-maximized="1"
     inkscape:current-layer="svg1"
     showgrid="false" />
  <defs
     id="defs1">
    <rect
       x="107.79799"
       y="178.37425"
       width="144.53632"
       height="199.64381"
       id="rect919" />
    <inkscape:path-effect
       effect="spiro"
       id="path-effect922"
       is_visible="true"
       lpeversion="1" />
    <rect
       x="195.51805"
       y="423.85031"
       width="307.6333"
       height="224.23048"
       id="rect2" />
    <rect
       x="164.07109"
       y="205.08887"
       width="403.34143"
       height="144.92946"
       id="rect1" />
    <rect
       x="164.07109"
       y="205.08887"
       width="403.34143"
       height="144.92946"
       id="rect1-9" />
    <rect
       x="195.51805"
       y="423.85031"
       width="307.6333"
       height="224.23048"
       id="rect2-0" />
    <rect
       x="164.07109"
       y="205.08887"
       width="403.34143"
       height="144.92946"
       id="rect1-9-0" />
    <rect
       x="195.51805"
       y="423.85031"
       width="307.6333"
       height="224.23048"
       id="rect2-0-8" />
    <rect
       x="164.07109"
       y="205.08887"
       width="403.34143"
       height="144.92946"
       id="rect1-0" />
    <rect
       x="164.07109"
       y="205.08887"
       width="403.34143"
       height="144.92946"
       id="rect1-0-6" />
  </defs>
  <path
     id="text917"
     style="font-style:normal;font-variant:normal;font-weight:normal;font-stretch:normal;font-size:40px;line-height:1.25;font-family:'Century Gothic';-inkscape-font-specification:'Century Gothic, Normal';font-variant-ligatures:normal;font-variant-caps:normal;font-variant-numeric:normal;font-variant-east-asian:normal;white-space:pre;shape-inside:url(#rect919);display:inline;fill:#d51828;fill-opacity:1;stroke:none;stroke-width:1.898;stroke-dasharray:none;stroke-opacity:1"
     inkscape:label="Letra C"
     d="M 34.017045 0.27285156 C 31.402414 0.27315041 29.05276 1.8201392 28.088725 4.1759725 C 22.443957 5.4919031 17.515804 8.1970024 13.306165 12.295374 C 8.3393025 17.130389 5.371893 22.876775 4.4012817 29.533081 C 1.8915654 30.426245 0.22280063 32.741765 0.22117513 35.333244 C 0.22256013 38.01201 2.0034383 40.385206 4.6322754 41.211438 C 5.6535696 46.789012 8.0115191 51.723238 11.708329 56.013118 C 17.799593 63.033099 26.116844 66.543225 36.660295 66.543225 C 42.20527 66.543225 47.21793 65.505146 51.69762 63.429203 C 53.285572 62.688154 54.778059 61.83829 56.179517 60.883622 C 56.802534 61.07555 57.45229 61.173502 58.106014 61.174044 C 61.628858 61.174011 64.484627 58.405693 64.484436 54.990959 C 64.484339 51.576421 61.628654 48.808423 58.106014 48.80839 C 54.583374 48.808423 51.727689 51.576421 51.727592 54.990959 C 51.728892 55.510762 51.797833 56.028348 51.932747 56.531433 C 47.565143 59.408506 42.59763 60.847965 37.029264 60.847965 C 29.35372 60.847965 22.989148 58.389946 17.935856 53.473222 C 14.072564 49.693758 11.695547 45.194931 10.801925 39.978955 C 12.183391 38.80622 12.976396 37.113249 12.978019 35.333244 C 12.977963 33.519977 12.156712 31.798125 10.731645 30.623454 C 11.21523 27.506979 12.223289 24.620613 13.756783 21.965068 C 16.02392 18.059168 19.206394 14.958794 23.303487 12.664343 C 25.127589 11.630672 27.022514 10.828496 28.987378 10.255188 C 30.19556 11.758279 32.05126 12.637424 34.017045 12.637988 C 36.386786 12.636088 38.560103 11.360853 39.660628 9.3265625 C 42.906746 9.6429112 45.936294 10.481141 48.747412 11.844755 C 51.764052 13.274869 54.423564 15.263532 56.727287 17.808732 C 56.453815 18.507247 56.313225 19.248041 56.312325 19.995162 C 56.312421 23.4097 59.168107 26.177697 62.690747 26.17773 C 66.213388 26.177697 69.069073 23.4097 69.069169 19.995162 C 69.069072 16.580624 66.213388 13.812627 62.690747 13.812594 C 62.253982 13.813594 61.818468 13.85812 61.391085 13.945402 C 58.761363 10.880533 55.572341 8.4307613 51.82061 6.6001139 C 48.093527 4.7590196 43.996219 3.6763935 39.53092 3.3486328 C 38.38924 1.4447003 36.288952 0.27310707 34.017045 0.27285156 z M 40.829032 20.340877 C 37.942726 20.340877 35.457 21.334105 33.371606 23.32054 C 31.301324 25.292787 30.26637 27.648332 30.26637 30.386776 C 30.26637 32.656988 30.953625 34.927 32.328776 37.197213 C 33.190134 38.630284 33.620687 39.559491 33.620687 39.985156 C 33.620687 40.637842 33.348732 41.184479 32.804716 41.624333 C 32.275812 42.049997 31.610918 42.262537 30.810006 42.262537 C 30.129986 42.262537 29.351734 41.999974 28.475264 41.474988 L 28.475264 49.882227 C 29.925973 50.520724 31.391997 50.839791 32.872929 50.839791 C 35.955685 50.839791 38.562395 49.860561 40.693123 47.902502 C 42.838963 45.944444 43.912048 43.553907 43.912048 40.73033 C 43.912048 38.80065 43.277142 36.799682 42.007772 34.728113 L 41.304972 33.578829 C 40.760957 32.684933 40.489001 31.947269 40.489001 31.365527 C 40.489001 30.684464 40.738595 30.102834 41.237276 29.620414 C 41.735957 29.137994 42.332733 28.896944 43.027865 28.896944 C 43.390542 28.896944 43.904464 29.002955 44.569373 29.215788 L 44.569373 20.936707 C 43.345337 20.539419 42.098403 20.340877 40.829032 20.340877 z " />
</svg>
