?xml version="1.0" encoding="UTF-8" standalone="no"?>
<!-- Created with Inkscape (http://www.inkscape.org/) -->

<svg
   width="69.212807mm"
   height="66.507973mm"
   viewBox="0 0 69.212803 66.507974"
   version="1.1"
   id="svg1"
   inkscape:version="1.2.2 (732a01da63, 2022-12-09)"
   sodipodi:docname="StayChill.svg"
   xmlns:inkscape="http://www.inkscape.org/namespaces/inkscape"
   xmlns:sodipodi="http://sodipodi.sourceforge.net/DTD/sodipodi-0.dtd"
   xmlns="http://www.w3.org/2000/svg"
   xmlns:svg="http://www.w3.org/2000/svg">
  <sodipodi:namedview
     id="namedview1"
     pagecolor="#ffffff"
     bordercolor="#000000"
     borderopacity="0.25"
     inkscape:showpageshadow="2"
     inkscape:pageopacity="0.0"
     inkscape:pagecheckerboard="0"
     inkscape:deskcolor="#d1d1d1"
     inkscape:document-units="mm"
     inkscape:zoom="2.9255613"
     inkscape:cx="86.137317"
     inkscape:cy="130.74414"
     inkscape:window-width="1920"
     inkscape:window-height="1013"
     inkscape:window-x="-9"
     inkscape:window-y="-9"
     inkscape:window-maximized="1"
     inkscape:current-layer="svg1"
     showgrid="false" />
  <defs
     id="defs1">
    <rect
       x="107.79799"
       y="178.37425"
       width="144.53632"
       height="199.64381"
       id="rect919" />
    <inkscape:path-effect
       effect="spiro"
       id="path-effect922"
       is_visible="true"
       lpeversion="1" />
    <rect
       x="195.51805"
       y="423.85031"
       width="307.6333"
       height="224.23048"
       id="rect2" />
    <rect
       x="164.07109"
       y="205.08887"
       width="403.34143"
       height="144.92946"
       id="rect1" />
    <rect
       x="164.07109"
       y="205.08887"
       width="403.34143"
       height="144.92946"
       id="rect1-9" />
    <rect
       x="195.51805"
       y="423.85031"
       width="307.6333"
       height="224.23048"
       id="rect2-0" />
    <rect
       x="164.07109"
       y="205.08887"
       width="403.34143"
       height="144.92946"
       id="rect1-9-0" />
    <rect
       x="195.51805"
       y="423.85031"
       width="307.6333"
       height="224.23048"
       id="rect2-0-8" />
    <rect
       x="164.07109"
       y="205.08887"
       width="403.34143"
       height="144.92946"
       id="rect1-0" />
    <rect
       x="164.07109"
       y="205.08887"
       width="403.34143"
       height="144.92946"
       id="rect1-0-6" />
  </defs>
  <path
     id="text917"
     style="font-style:normal;font-variant:normal;font-weight:normal;font-stretch:normal;font-size:40px;line-height:1.25;font-family:'Century Gothic';-inkscape-font-specification:'Century Gothic, Normal';font-variant-ligatures:normal;font-variant-caps:normal;font-variant-numeric:normal;font-variant-east-asian:normal;white-space:pre;shape-inside:url(#rect919);display:inline;fill:#d51828;fill-opacity:1;stroke:none;stroke-width:1.898;stroke-dasharray:none;stroke-opacity:1"
     inkscape:label="Letra C"
     d="M 34.017051,0.27286763 A 6.3784785,6.1827345 0 0 0 28.088718,4.1759799 C 22.443945,5.4919118 17.515804,8.1970098 13.30616,12.295385 8.339293,17.130405 5.3718855,22.876775 4.4012733,29.533088 A 6.3784785,6.1827345 0 0 0 0.22116687,35.333245 6.3784785,6.1827345 0 0 0 4.6322835,41.21144 c 1.0212952,5.57758 3.3792276,10.511805 7.0760415,14.80169 6.09127,7.019988 14.408498,10.530098 24.951959,10.530098 5.544981,0 10.557643,-1.038078 15.037337,-3.114023 1.587954,-0.74105 3.080437,-1.590912 4.481896,-2.545581 a 6.3784785,6.1827345 0 0 0 1.926498,0.29042 6.3784785,6.1827345 0 0 0 6.378417,-6.18307 6.3784785,6.1827345 0 0 0 -6.378417,-6.182565 6.3784785,6.1827345 0 0 0 -6.378417,6.182565 6.3784785,6.1827345 0 0 0 0.205145,1.54046 c -4.367609,2.877076 -9.335105,4.316548 -14.903476,4.316548 -7.675552,0 -14.040123,-2.458019 -19.09342,-7.374748 -3.863296,-3.779468 -6.240297,-8.278294 -7.13392,-13.494275 a 6.3784785,6.1827345 0 0 0 2.176095,-4.645714 6.3784785,6.1827345 0 0 0 -2.246372,-4.709781 c 0.483586,-3.116478 1.491644,-6.002847 3.02514,-8.658395 2.267139,-3.905903 5.449592,-7.006269 9.546689,-9.300722 1.824104,-1.033672 3.71903,-1.835831 5.683896,-2.40914 a 6.3784785,6.1827345 0 0 0 5.029676,2.382792 6.3784785,6.1827345 0 0 0 5.643577,-3.3114263 c 3.246121,0.316349 6.275666,1.1545683 9.086787,2.5181833 3.016643,1.430115 5.676156,3.418792 7.979881,5.963995 a 6.3784785,6.1827345 0 0 0 -0.414967,2.186416 6.3784785,6.1827345 0 0 0 6.378417,6.182566 6.3784785,6.1827345 0 0 0 6.378417,-6.182566 6.3784785,6.1827345 0 0 0 -6.378417,-6.182565 6.3784785,6.1827345 0 0 0 -1.299653,0.132812 C 58.761369,10.880542 55.57235,8.4307682 51.820615,6.600119 48.093529,4.7590228 43.996223,3.6764088 39.53092,3.3486478 A 6.3784785,6.1827345 0 0 0 34.017051,0.27286763 Z M 41.504954,17.306453 c -3.214549,0.0057 -5.981386,1.188763 -8.299754,3.549129 -2.301543,2.34352 -3.449525,5.13939 -3.443714,8.38761 0.0048,2.692826 0.775643,5.384351 2.312012,8.074429 0.962347,1.698131 1.443961,2.799814 1.444863,3.304714 0.0014,0.774194 -0.300406,1.42229 -0.905371,1.945105 -0.58814,0.505948 -1.328015,0.760118 -2.220023,0.761713 -0.757349,0.0013 -1.624644,-0.308692 -2.601907,-0.929663 l 0.01758,9.971998 c 1.617051,0.754475 3.250087,1.130003 4.899444,1.127066 3.43335,-0.0061 6.33495,-1.172714 8.703854,-3.499536 2.385728,-2.326822 3.575288,-5.164481 3.569288,-8.513689 -0.0041,-2.288893 -0.715078,-4.66065 -2.133194,-7.115333 l -0.784957,-1.362189 c -0.607797,-1.059202 -0.912419,-1.933567 -0.913657,-2.623598 -0.0014,-0.807865 0.275044,-1.498504 0.82941,-2.071708 0.554386,-0.573225 1.218467,-0.860582 1.992641,-0.861967 0.403932,-7.34e-4 0.976759,0.124547 1.717725,0.375675 l -0.01756,-9.820579 c -1.364098,-0.468817 -2.752949,-0.701715 -4.166681,-0.699177 z m -15.80937,27.131159 c -0.01678,0.01049 -0.03407,0.01896 -0.05064,0.02945 -0.04804,0.02874 -0.09119,0.06967 -0.131259,0.118337 0.06209,-0.03 0.123623,-0.06159 0.186557,-0.08991 -0.0014,-0.01888 -0.0041,-0.03858 -0.0041,-0.05788 z" />
</svg>
